# xmcd
#
# Track frame offsets:
#	182
#	13865
#	26372
#	40787
#	56102
#	71792
#	86547
#	106757
#	118297
#	131822
#	144595
#	158815
#	174595
#	190710
#	203355
#	214217
#
# Disc length: 3047 seconds
#
# Revision: 1
# Processed by: cddbd v1.4PL0 Copyright (c) Steve Scherf et al.
# Submitted via: audiograbber 1.81.02
#
DISCID=e10be510
DTITLE=Aaron Tippin - RCA Country Legends
DYEAR=2002
DGENRE=Country
TTITLE0=You've Got To Stand For Something
TTITLE1=There Ain't Nothin' Wrong With The Radio
TTITLE2=I Wouldn't Have It Any Other Way
TTITLE3=My Blue Angel
TTITLE4=Working Man's PH.D.
TTITLE5=That's As Close As I'll Get To Loving You
TTITLE6=The Call Of The Wild
TTITLE7=Ain't That A Hell Of A Note
TTITLE8=The Sky's Got The Blues
TTITLE9=Many, Many, Many Beers Ago
TTITLE10=The Man That Came Between Us (Was Me)
TTITLE11=I Wonder How Far It Is Over You
TTITLE12=These Sweet Dreams
TTITLE13=I Miss Misbehavin'
TTITLE14=When Country Took The Throne
TTITLE15=You Are The Woman
EXTD=
EXTT0=
EXTT1=
EXTT2=
EXTT3=
EXTT4=
EXTT5=
EXTT6=
EXTT7=
EXTT8=
EXTT9=
EXTT10=
EXTT11=
EXTT12=
EXTT13=
EXTT14=
EXTT15=
PLAYORDER=
